<?xml version="1.0" encoding="utf-8" standalone="no"?>
<!DOCTYPE svg PUBLIC "-//W3C//DTD SVG 1.1//EN"
  "http://www.w3.org/Graphics/SVG/1.1/DTD/svg11.dtd">
<svg xmlns:xlink="http://www.w3.org/1999/xlink" width="280.495625pt" height="280.398125pt" viewBox="0 0 280.495625 280.398125" xmlns="http://www.w3.org/2000/svg" version="1.1">
 <metadata>
  <rdf:RDF xmlns:dc="http://purl.org/dc/elements/1.1/" xmlns:cc="http://creativecommons.org/ns#" xmlns:rdf="http://www.w3.org/1999/02/22-rdf-syntax-ns#">
   <cc:Work>
    <dc:type rdf:resource="http://purl.org/dc/dcmitype/StillImage"/>
    <dc:date>2026-03-30T10:58:27.063772</dc:date>
    <dc:format>image/svg+xml</dc:format>
    <dc:creator>
     <cc:Agent>
      <dc:title>Matplotlib v3.10.8, https://matplotlib.org/</dc:title>
     </cc:Agent>
    </dc:creator>
   </cc:Work>
  </rdf:RDF>
 </metadata>
 <defs>
  <style type="text/css">*{stroke-linejoin: round; stroke-linecap: butt}</style>
 </defs>
 <g id="figure_1">
  <g id="patch_1">
   <path d="M 0 280.398125 
L 280.495625 280.398125 
L 280.495625 0 
L 0 0 
z
" style="fill: #ffffff"/>
  </g>
  <g id="axes_1">
   <g id="patch_2">
    <path d="M 46.965625 267.319219 
L 273.295625 267.319219 
L 273.295625 10.999219 
L 46.965625 10.999219 
z
" style="fill: #ffffff"/>
   </g>
   <g id="matplotlib.axis_1"/>
   <g id="matplotlib.axis_2">
    <g id="ytick_1">
     <g id="line2d_1">
      <path d="M 46.965625 267.319219 
L 273.295625 267.319219 
" clip-path="url(#pb09044a21a)" style="fill: none; stroke: #cccccc; stroke-width: 0.8; stroke-linecap: round"/>
     </g>
     <g id="text_1">
      <!-- 0 -->
      <g style="fill: #262626" transform="translate(33.603125 271.118438) scale(0.1 -0.1)">
       <defs>
        <path id="DejaVuSans-30" d="M 2034 4250 
Q 1547 4250 1301 3770 
Q 1056 3291 1056 2328 
Q 1056 1369 1301 889 
Q 1547 409 2034 409 
Q 2525 409 2770 889 
Q 3016 1369 3016 2328 
Q 3016 3291 2770 3770 
Q 2525 4250 2034 4250 
z
M 2034 4750 
Q 2819 4750 3233 4129 
Q 3647 3509 3647 2328 
Q 3647 1150 3233 529 
Q 2819 -91 2034 -91 
Q 1250 -91 836 529 
Q 422 1150 422 2328 
Q 422 3509 836 4129 
Q 1250 4750 2034 4750 
z
" transform="scale(0.015625)"/>
       </defs>
       <use xlink:href="#DejaVuSans-30"/>
      </g>
     </g>
    </g>
    <g id="ytick_2">
     <g id="line2d_2">
      <path d="M 46.965625 238.839219 
L 273.295625 238.839219 
" clip-path="url(#pb09044a21a)" style="fill: none; stroke: #cccccc; stroke-width: 0.8; stroke-linecap: round"/>
     </g>
     <g id="text_2">
      <!-- 25 -->
      <g style="fill: #262626" transform="translate(27.240625 242.638438) scale(0.1 -0.1)">
       <defs>
        <path id="DejaVuSans-32" d="M 1228 531 
L 3431 531 
L 3431 0 
L 469 0 
L 469 531 
Q 828 903 1448 1529 
Q 2069 2156 2228 2338 
Q 2531 2678 2651 2914 
Q 2772 3150 2772 3378 
Q 2772 3750 2511 3984 
Q 2250 4219 1831 4219 
Q 1534 4219 1204 4116 
Q 875 4013 500 3803 
L 500 4441 
Q 881 4594 1212 4672 
Q 1544 4750 1819 4750 
Q 2544 4750 2975 4387 
Q 3406 4025 3406 3419 
Q 3406 3131 3298 2873 
Q 3191 2616 2906 2266 
Q 2828 2175 2409 1742 
Q 1991 1309 1228 531 
z
" transform="scale(0.015625)"/>
        <path id="DejaVuSans-35" d="M 691 4666 
L 3169 4666 
L 3169 4134 
L 1269 4134 
L 1269 2991 
Q 1406 3038 1543 3061 
Q 1681 3084 1819 3084 
Q 2600 3084 3056 2656 
Q 3513 2228 3513 1497 
Q 3513 744 3044 326 
Q 2575 -91 1722 -91 
Q 1428 -91 1123 -41 
Q 819 9 494 109 
L 494 744 
Q 775 591 1075 516 
Q 1375 441 1709 441 
Q 2250 441 2565 725 
Q 2881 1009 2881 1497 
Q 2881 1984 2565 2268 
Q 2250 2553 1709 2553 
Q 1456 2553 1204 2497 
Q 953 2441 691 2322 
L 691 4666 
z
" transform="scale(0.015625)"/>
       </defs>
       <use xlink:href="#DejaVuSans-32"/>
       <use xlink:href="#DejaVuSans-35" transform="translate(63.623047 0)"/>
      </g>
     </g>
    </g>
    <g id="ytick_3">
     <g id="line2d_3">
      <path d="M 46.965625 210.359219 
L 273.295625 210.359219 
" clip-path="url(#pb09044a21a)" style="fill: none; stroke: #cccccc; stroke-width: 0.8; stroke-linecap: round"/>
     </g>
     <g id="text_3">
      <!-- 50 -->
      <g style="fill: #262626" transform="translate(27.240625 214.158438) scale(0.1 -0.1)">
       <use xlink:href="#DejaVuSans-35"/>
       <use xlink:href="#DejaVuSans-30" transform="translate(63.623047 0)"/>
      </g>
     </g>
    </g>
    <g id="ytick_4">
     <g id="line2d_4">
      <path d="M 46.965625 181.879219 
L 273.295625 181.879219 
" clip-path="url(#pb09044a21a)" style="fill: none; stroke: #cccccc; stroke-width: 0.8; stroke-linecap: round"/>
     </g>
     <g id="text_4">
      <!-- 75 -->
      <g style="fill: #262626" transform="translate(27.240625 185.678438) scale(0.1 -0.1)">
       <defs>
        <path id="DejaVuSans-37" d="M 525 4666 
L 3525 4666 
L 3525 4397 
L 1831 0 
L 1172 0 
L 2766 4134 
L 525 4134 
L 525 4666 
z
" transform="scale(0.015625)"/>
       </defs>
       <use xlink:href="#DejaVuSans-37"/>
       <use xlink:href="#DejaVuSans-35" transform="translate(63.623047 0)"/>
      </g>
     </g>
    </g>
    <g id="ytick_5">
     <g id="line2d_5">
      <path d="M 46.965625 153.399219 
L 273.295625 153.399219 
" clip-path="url(#pb09044a21a)" style="fill: none; stroke: #cccccc; stroke-width: 0.8; stroke-linecap: round"/>
     </g>
     <g id="text_5">
      <!-- 100 -->
      <g style="fill: #262626" transform="translate(20.878125 157.198438) scale(0.1 -0.1)">
       <defs>
        <path id="DejaVuSans-31" d="M 794 531 
L 1825 531 
L 1825 4091 
L 703 3866 
L 703 4441 
L 1819 4666 
L 2450 4666 
L 2450 531 
L 3481 531 
L 3481 0 
L 794 0 
L 794 531 
z
" transform="scale(0.015625)"/>
       </defs>
       <use xlink:href="#DejaVuSans-31"/>
       <use xlink:href="#DejaVuSans-30" transform="translate(63.623047 0)"/>
       <use xlink:href="#DejaVuSans-30" transform="translate(127.246094 0)"/>
      </g>
     </g>
    </g>
    <g id="ytick_6">
     <g id="line2d_6">
      <path d="M 46.965625 124.919219 
L 273.295625 124.919219 
" clip-path="url(#pb09044a21a)" style="fill: none; stroke: #cccccc; stroke-width: 0.8; stroke-linecap: round"/>
     </g>
     <g id="text_6">
      <!-- 125 -->
      <g style="fill: #262626" transform="translate(20.878125 128.718438) scale(0.1 -0.1)">
       <use xlink:href="#DejaVuSans-31"/>
       <use xlink:href="#DejaVuSans-32" transform="translate(63.623047 0)"/>
       <use xlink:href="#DejaVuSans-35" transform="translate(127.246094 0)"/>
      </g>
     </g>
    </g>
    <g id="ytick_7">
     <g id="line2d_7">
      <path d="M 46.965625 96.439219 
L 273.295625 96.439219 
" clip-path="url(#pb09044a21a)" style="fill: none; stroke: #cccccc; stroke-width: 0.8; stroke-linecap: round"/>
     </g>
     <g id="text_7">
      <!-- 150 -->
      <g style="fill: #262626" transform="translate(20.878125 100.238438) scale(0.1 -0.1)">
       <use xlink:href="#DejaVuSans-31"/>
       <use xlink:href="#DejaVuSans-35" transform="translate(63.623047 0)"/>
       <use xlink:href="#DejaVuSans-30" transform="translate(127.246094 0)"/>
      </g>
     </g>
    </g>
    <g id="ytick_8">
     <g id="line2d_8">
      <path d="M 46.965625 67.959219 
L 273.295625 67.959219 
" clip-path="url(#pb09044a21a)" style="fill: none; stroke: #cccccc; stroke-width: 0.8; stroke-linecap: round"/>
     </g>
     <g id="text_8">
      <!-- 175 -->
      <g style="fill: #262626" transform="translate(20.878125 71.758438) scale(0.1 -0.1)">
       <use xlink:href="#DejaVuSans-31"/>
       <use xlink:href="#DejaVuSans-37" transform="translate(63.623047 0)"/>
       <use xlink:href="#DejaVuSans-35" transform="translate(127.246094 0)"/>
      </g>
     </g>
    </g>
    <g id="ytick_9">
     <g id="line2d_9">
      <path d="M 46.965625 39.479219 
L 273.295625 39.479219 
" clip-path="url(#pb09044a21a)" style="fill: none; stroke: #cccccc; stroke-width: 0.8; stroke-linecap: round"/>
     </g>
     <g id="text_9">
      <!-- 200 -->
      <g style="fill: #262626" transform="translate(20.878125 43.278438) scale(0.1 -0.1)">
       <use xlink:href="#DejaVuSans-32"/>
       <use xlink:href="#DejaVuSans-30" transform="translate(63.623047 0)"/>
       <use xlink:href="#DejaVuSans-30" transform="translate(127.246094 0)"/>
      </g>
     </g>
    </g>
    <g id="ytick_10">
     <g id="line2d_10">
      <path d="M 46.965625 10.999219 
L 273.295625 10.999219 
" clip-path="url(#pb09044a21a)" style="fill: none; stroke: #cccccc; stroke-width: 0.8; stroke-linecap: round"/>
     </g>
     <g id="text_10">
      <!-- 225 -->
      <g style="fill: #262626" transform="translate(20.878125 14.798438) scale(0.1 -0.1)">
       <use xlink:href="#DejaVuSans-32"/>
       <use xlink:href="#DejaVuSans-32" transform="translate(63.623047 0)"/>
       <use xlink:href="#DejaVuSans-35" transform="translate(127.246094 0)"/>
      </g>
     </g>
    </g>
    <g id="text_11">
     <!-- Coautorias -->
     <g style="fill: #262626" transform="translate(14.798437 166.075625) rotate(-90) scale(0.1 -0.1)">
      <defs>
       <path id="DejaVuSans-43" d="M 4122 4306 
L 4122 3641 
Q 3803 3938 3442 4084 
Q 3081 4231 2675 4231 
Q 1875 4231 1450 3742 
Q 1025 3253 1025 2328 
Q 1025 1406 1450 917 
Q 1875 428 2675 428 
Q 3081 428 3442 575 
Q 3803 722 4122 1019 
L 4122 359 
Q 3791 134 3420 21 
Q 3050 -91 2638 -91 
Q 1578 -91 968 557 
Q 359 1206 359 2328 
Q 359 3453 968 4101 
Q 1578 4750 2638 4750 
Q 3056 4750 3426 4639 
Q 3797 4528 4122 4306 
z
" transform="scale(0.015625)"/>
       <path id="DejaVuSans-6f" d="M 1959 3097 
Q 1497 3097 1228 2736 
Q 959 2375 959 1747 
Q 959 1119 1226 758 
Q 1494 397 1959 397 
Q 2419 397 2687 759 
Q 2956 1122 2956 1747 
Q 2956 2369 2687 2733 
Q 2419 3097 1959 3097 
z
M 1959 3584 
Q 2709 3584 3137 3096 
Q 3566 2609 3566 1747 
Q 3566 888 3137 398 
Q 2709 -91 1959 -91 
Q 1206 -91 779 398 
Q 353 888 353 1747 
Q 353 2609 779 3096 
Q 1206 3584 1959 3584 
z
" transform="scale(0.015625)"/>
       <path id="DejaVuSans-61" d="M 2194 1759 
Q 1497 1759 1228 1600 
Q 959 1441 959 1056 
Q 959 750 1161 570 
Q 1363 391 1709 391 
Q 2188 391 2477 730 
Q 2766 1069 2766 1631 
L 2766 1759 
L 2194 1759 
z
M 3341 1997 
L 3341 0 
L 2766 0 
L 2766 531 
Q 2569 213 2275 61 
Q 1981 -91 1556 -91 
Q 1019 -91 701 211 
Q 384 513 384 1019 
Q 384 1609 779 1909 
Q 1175 2209 1959 2209 
L 2766 2209 
L 2766 2266 
Q 2766 2663 2505 2880 
Q 2244 3097 1772 3097 
Q 1472 3097 1187 3025 
Q 903 2953 641 2809 
L 641 3341 
Q 956 3463 1253 3523 
Q 1550 3584 1831 3584 
Q 2591 3584 2966 3190 
Q 3341 2797 3341 1997 
z
" transform="scale(0.015625)"/>
       <path id="DejaVuSans-75" d="M 544 1381 
L 544 3500 
L 1119 3500 
L 1119 1403 
Q 1119 906 1312 657 
Q 1506 409 1894 409 
Q 2359 409 2629 706 
Q 2900 1003 2900 1516 
L 2900 3500 
L 3475 3500 
L 3475 0 
L 2900 0 
L 2900 538 
Q 2691 219 2414 64 
Q 2138 -91 1772 -91 
Q 1169 -91 856 284 
Q 544 659 544 1381 
z
M 1991 3584 
L 1991 3584 
z
" transform="scale(0.015625)"/>
       <path id="DejaVuSans-74" d="M 1172 4494 
L 1172 3500 
L 2356 3500 
L 2356 3053 
L 1172 3053 
L 1172 1153 
Q 1172 725 1289 603 
Q 1406 481 1766 481 
L 2356 481 
L 2356 0 
L 1766 0 
Q 1100 0 847 248 
Q 594 497 594 1153 
L 594 3053 
L 172 3053 
L 172 3500 
L 594 3500 
L 594 4494 
L 1172 4494 
z
" transform="scale(0.015625)"/>
       <path id="DejaVuSans-72" d="M 2631 2963 
Q 2534 3019 2420 3045 
Q 2306 3072 2169 3072 
Q 1681 3072 1420 2755 
Q 1159 2438 1159 1844 
L 1159 0 
L 581 0 
L 581 3500 
L 1159 3500 
L 1159 2956 
Q 1341 3275 1631 3429 
Q 1922 3584 2338 3584 
Q 2397 3584 2469 3576 
Q 2541 3569 2628 3553 
L 2631 2963 
z
" transform="scale(0.015625)"/>
       <path id="DejaVuSans-69" d="M 603 3500 
L 1178 3500 
L 1178 0 
L 603 0 
L 603 3500 
z
M 603 4863 
L 1178 4863 
L 1178 4134 
L 603 4134 
L 603 4863 
z
" transform="scale(0.015625)"/>
       <path id="DejaVuSans-73" d="M 2834 3397 
L 2834 2853 
Q 2591 2978 2328 3040 
Q 2066 3103 1784 3103 
Q 1356 3103 1142 2972 
Q 928 2841 928 2578 
Q 928 2378 1081 2264 
Q 1234 2150 1697 2047 
L 1894 2003 
Q 2506 1872 2764 1633 
Q 3022 1394 3022 966 
Q 3022 478 2636 193 
Q 2250 -91 1575 -91 
Q 1294 -91 989 -36 
Q 684 19 347 128 
L 347 722 
Q 666 556 975 473 
Q 1284 391 1588 391 
Q 1994 391 2212 530 
Q 2431 669 2431 922 
Q 2431 1156 2273 1281 
Q 2116 1406 1581 1522 
L 1381 1569 
Q 847 1681 609 1914 
Q 372 2147 372 2553 
Q 372 3047 722 3315 
Q 1072 3584 1716 3584 
Q 2034 3584 2315 3537 
Q 2597 3491 2834 3397 
z
" transform="scale(0.015625)"/>
      </defs>
      <use xlink:href="#DejaVuSans-43"/>
      <use xlink:href="#DejaVuSans-6f" transform="translate(69.824219 0)"/>
      <use xlink:href="#DejaVuSans-61" transform="translate(131.005859 0)"/>
      <use xlink:href="#DejaVuSans-75" transform="translate(192.285156 0)"/>
      <use xlink:href="#DejaVuSans-74" transform="translate(255.664062 0)"/>
      <use xlink:href="#DejaVuSans-6f" transform="translate(294.873047 0)"/>
      <use xlink:href="#DejaVuSans-72" transform="translate(356.054688 0)"/>
      <use xlink:href="#DejaVuSans-69" transform="translate(397.167969 0)"/>
      <use xlink:href="#DejaVuSans-61" transform="translate(424.951172 0)"/>
      <use xlink:href="#DejaVuSans-73" transform="translate(486.230469 0)"/>
     </g>
    </g>
   </g>
   <g id="FillBetweenPolyCollection_1">
    <defs>
     <path id="mf81732710c" d="M 169.566849 -10.465516 
L 150.694401 -10.465516 
L 91.590497 -13.107403 
L 69.598625 -15.74929 
L 121.19927 -18.391176 
L 143.952286 -21.033063 
L 150.76746 -23.67495 
L 153.917257 -26.316836 
L 155.956068 -28.958723 
L 157.054226 -31.60061 
L 157.81295 -34.242496 
L 158.23797 -36.884383 
L 158.367546 -39.52627 
L 158.736655 -42.168156 
L 158.956979 -44.810043 
L 159.064518 -47.45193 
L 159.315555 -50.093816 
L 159.606087 -52.735703 
L 159.728288 -55.37759 
L 159.750571 -58.019476 
L 159.741924 -60.661363 
L 159.831412 -63.30325 
L 159.883296 -65.945136 
L 159.903752 -68.587023 
L 159.906098 -71.22891 
L 159.884963 -73.870796 
L 159.986652 -76.512683 
L 159.99928 -79.15457 
L 159.992973 -81.796456 
L 160.014038 -84.438343 
L 160.011192 -87.08023 
L 160.056248 -89.722116 
L 160.074226 -92.364003 
L 160.036983 -95.00589 
L 160.012693 -97.647776 
L 160.060971 -100.289663 
L 160.06589 -102.93155 
L 160.089183 -105.573436 
L 160.09114 -108.215323 
L 160.05576 -110.85721 
L 160.066167 -113.499096 
L 160.071071 -116.140983 
L 160.101403 -118.78287 
L 160.116172 -121.424756 
L 160.115607 -124.066643 
L 160.085757 -126.70853 
L 160.067996 -129.350416 
L 160.076262 -131.992303 
L 160.11246 -134.63419 
L 160.121933 -137.276076 
L 160.115307 -139.917963 
L 160.125894 -142.55985 
L 160.122952 -145.201736 
L 160.111176 -147.843623 
L 160.110985 -150.48551 
L 160.122614 -153.127396 
L 160.130065 -155.769283 
L 160.130189 -158.41117 
L 160.12303 -161.053056 
L 160.106416 -163.694943 
L 160.109284 -166.33683 
L 160.114671 -168.978716 
L 160.11836 -171.620603 
L 160.128907 -174.26249 
L 160.128191 -176.904376 
L 160.115863 -179.546263 
L 160.105279 -182.18815 
L 160.099969 -184.830036 
L 160.120877 -187.471923 
L 160.130114 -190.11381 
L 160.13061 -192.755696 
L 160.129755 -195.397583 
L 160.121098 -198.03947 
L 160.115766 -200.681356 
L 160.120174 -203.323243 
L 160.11519 -205.96513 
L 160.125815 -208.607016 
L 160.123221 -211.248903 
L 160.115207 -213.89079 
L 160.1261 -216.532676 
L 160.130442 -219.174563 
L 160.130624 -221.81645 
L 160.130625 -224.458336 
L 160.130625 -227.100223 
L 160.130625 -229.74211 
L 160.130625 -232.383996 
L 160.130625 -235.025883 
L 160.130625 -237.66777 
L 160.130625 -240.309656 
L 160.130625 -242.951543 
L 160.130625 -245.59343 
L 160.130625 -248.235316 
L 160.130625 -250.877203 
L 160.130625 -253.51909 
L 160.130625 -256.160976 
L 160.130625 -258.802863 
L 160.130604 -261.44475 
L 160.129307 -264.086636 
L 160.11942 -266.728523 
L 160.117505 -269.37041 
L 160.128509 -272.012296 
L 160.132741 -272.012296 
L 160.132741 -272.012296 
L 160.143745 -269.37041 
L 160.14183 -266.728523 
L 160.131943 -264.086636 
L 160.130646 -261.44475 
L 160.130625 -258.802863 
L 160.130625 -256.160976 
L 160.130625 -253.51909 
L 160.130625 -250.877203 
L 160.130625 -248.235316 
L 160.130625 -245.59343 
L 160.130625 -242.951543 
L 160.130625 -240.309656 
L 160.130625 -237.66777 
L 160.130625 -235.025883 
L 160.130625 -232.383996 
L 160.130625 -229.74211 
L 160.130625 -227.100223 
L 160.130625 -224.458336 
L 160.130626 -221.81645 
L 160.130808 -219.174563 
L 160.13515 -216.532676 
L 160.146043 -213.89079 
L 160.138029 -211.248903 
L 160.135435 -208.607016 
L 160.14606 -205.96513 
L 160.141076 -203.323243 
L 160.145484 -200.681356 
L 160.140152 -198.03947 
L 160.131495 -195.397583 
L 160.13064 -192.755696 
L 160.131136 -190.11381 
L 160.140373 -187.471923 
L 160.161281 -184.830036 
L 160.155971 -182.18815 
L 160.145387 -179.546263 
L 160.133059 -176.904376 
L 160.132343 -174.26249 
L 160.14289 -171.620603 
L 160.146579 -168.978716 
L 160.151966 -166.33683 
L 160.154834 -163.694943 
L 160.13822 -161.053056 
L 160.131061 -158.41117 
L 160.131185 -155.769283 
L 160.138636 -153.127396 
L 160.150265 -150.48551 
L 160.150074 -147.843623 
L 160.138298 -145.201736 
L 160.135356 -142.55985 
L 160.145943 -139.917963 
L 160.139317 -137.276076 
L 160.14879 -134.63419 
L 160.184988 -131.992303 
L 160.193254 -129.350416 
L 160.175493 -126.70853 
L 160.145643 -124.066643 
L 160.145078 -121.424756 
L 160.159847 -118.78287 
L 160.190179 -116.140983 
L 160.195083 -113.499096 
L 160.20549 -110.85721 
L 160.17011 -108.215323 
L 160.172067 -105.573436 
L 160.19536 -102.93155 
L 160.200279 -100.289663 
L 160.248557 -97.647776 
L 160.224267 -95.00589 
L 160.187024 -92.364003 
L 160.205002 -89.722116 
L 160.250058 -87.08023 
L 160.247212 -84.438343 
L 160.268277 -81.796456 
L 160.26197 -79.15457 
L 160.274598 -76.512683 
L 160.376287 -73.870796 
L 160.355152 -71.22891 
L 160.357498 -68.587023 
L 160.377954 -65.945136 
L 160.429838 -63.30325 
L 160.519326 -60.661363 
L 160.510679 -58.019476 
L 160.532962 -55.37759 
L 160.655163 -52.735703 
L 160.945695 -50.093816 
L 161.196732 -47.45193 
L 161.304271 -44.810043 
L 161.524595 -42.168156 
L 161.893704 -39.52627 
L 162.02328 -36.884383 
L 162.4483 -34.242496 
L 163.207024 -31.60061 
L 164.305182 -28.958723 
L 166.343993 -26.316836 
L 169.49379 -23.67495 
L 176.308964 -21.033063 
L 199.06198 -18.391176 
L 250.662625 -15.74929 
L 228.670753 -13.107403 
L 169.566849 -10.465516 
z
" style="stroke: #6f6f6f; stroke-width: 1.25"/>
    </defs>
    <g clip-path="url(#pb09044a21a)">
     <use xlink:href="#mf81732710c" x="0" y="280.398125" style="fill: #94c9de; stroke: #6f6f6f; stroke-width: 1.25"/>
    </g>
   </g>
   <g id="line2d_11">
    <path d="M 82.344663 266.180019 
L 237.916587 266.180019 
" clip-path="url(#pb09044a21a)" style="fill: none; stroke-dasharray: 1.5625,0.9375; stroke-dashoffset: 0; stroke: #6f6f6f; stroke-width: 1.25"/>
   </g>
   <g id="line2d_12">
    <path d="M 72.861614 265.040819 
L 247.399636 265.040819 
" clip-path="url(#pb09044a21a)" style="fill: none; stroke-dasharray: 3.125,1.25; stroke-dashoffset: 0; stroke: #6f6f6f; stroke-width: 1.25"/>
   </g>
   <g id="line2d_13">
    <path d="M 106.443625 262.762419 
L 213.817625 262.762419 
" clip-path="url(#pb09044a21a)" style="fill: none; stroke-dasharray: 1.5625,0.9375; stroke-dashoffset: 0; stroke: #6f6f6f; stroke-width: 1.25"/>
   </g>
   <g id="patch_3">
    <path d="M 46.965625 267.319219 
L 46.965625 10.999219 
" style="fill: none; stroke: #cccccc; stroke-width: 0.8; stroke-linejoin: miter; stroke-linecap: square"/>
   </g>
   <g id="patch_4">
    <path d="M 273.295625 267.319219 
L 273.295625 10.999219 
" style="fill: none; stroke: #cccccc; stroke-width: 0.8; stroke-linejoin: miter; stroke-linecap: square"/>
   </g>
   <g id="patch_5">
    <path d="M 46.965625 267.319219 
L 273.295625 267.319219 
" style="fill: none; stroke: #cccccc; stroke-width: 0.8; stroke-linejoin: miter; stroke-linecap: square"/>
   </g>
   <g id="patch_6">
    <path d="M 46.965625 10.999219 
L 273.295625 10.999219 
" style="fill: none; stroke: #cccccc; stroke-width: 0.8; stroke-linejoin: miter; stroke-linecap: square"/>
   </g>
  </g>
 </g>
 <defs>
  <clipPath id="pb09044a21a">
   <rect x="46.965625" y="10.999219" width="226.33" height="256.32"/>
  </clipPath>
 </defs>
</svg>
