<?xml version="1.0" encoding="utf-8" standalone="no"?>
<!DOCTYPE svg PUBLIC "-//W3C//DTD SVG 1.1//EN"
  "http://www.w3.org/Graphics/SVG/1.1/DTD/svg11.dtd">
<svg xmlns:xlink="http://www.w3.org/1999/xlink" width="280.433125pt" height="280.398125pt" viewBox="0 0 280.433125 280.398125" xmlns="http://www.w3.org/2000/svg" version="1.1">
 <metadata>
  <rdf:RDF xmlns:dc="http://purl.org/dc/elements/1.1/" xmlns:cc="http://creativecommons.org/ns#" xmlns:rdf="http://www.w3.org/1999/02/22-rdf-syntax-ns#">
   <cc:Work>
    <dc:type rdf:resource="http://purl.org/dc/dcmitype/StillImage"/>
    <dc:date>2026-03-30T10:58:27.232599</dc:date>
    <dc:format>image/svg+xml</dc:format>
    <dc:creator>
     <cc:Agent>
      <dc:title>Matplotlib v3.10.8, https://matplotlib.org/</dc:title>
     </cc:Agent>
    </dc:creator>
   </cc:Work>
  </rdf:RDF>
 </metadata>
 <defs>
  <style type="text/css">*{stroke-linejoin: round; stroke-linecap: butt}</style>
 </defs>
 <g id="figure_1">
  <g id="patch_1">
   <path d="M 0 280.398125 
L 280.433125 280.398125 
L 280.433125 0 
L 0 0 
z
" style="fill: #ffffff"/>
  </g>
  <g id="axes_1">
   <g id="patch_2">
    <path d="M 40.603125 267.319219 
L 273.233125 267.319219 
L 273.233125 10.999219 
L 40.603125 10.999219 
z
" style="fill: #ffffff"/>
   </g>
   <g id="matplotlib.axis_1"/>
   <g id="matplotlib.axis_2">
    <g id="ytick_1">
     <g id="line2d_1">
      <path d="M 40.603125 267.319219 
L 273.233125 267.319219 
" clip-path="url(#p3f76abef8a)" style="fill: none; stroke: #cccccc; stroke-width: 0.8; stroke-linecap: round"/>
     </g>
     <g id="text_1">
      <!-- 0 -->
      <g style="fill: #262626" transform="translate(27.240625 271.118437) scale(0.1 -0.1)">
       <defs>
        <path id="DejaVuSans-30" d="M 2034 4250 
Q 1547 4250 1301 3770 
Q 1056 3291 1056 2328 
Q 1056 1369 1301 889 
Q 1547 409 2034 409 
Q 2525 409 2770 889 
Q 3016 1369 3016 2328 
Q 3016 3291 2770 3770 
Q 2525 4250 2034 4250 
z
M 2034 4750 
Q 2819 4750 3233 4129 
Q 3647 3509 3647 2328 
Q 3647 1150 3233 529 
Q 2819 -91 2034 -91 
Q 1250 -91 836 529 
Q 422 1150 422 2328 
Q 422 3509 836 4129 
Q 1250 4750 2034 4750 
z
" transform="scale(0.015625)"/>
       </defs>
       <use xlink:href="#DejaVuSans-30"/>
      </g>
     </g>
    </g>
    <g id="ytick_2">
     <g id="line2d_2">
      <path d="M 40.603125 230.702076 
L 273.233125 230.702076 
" clip-path="url(#p3f76abef8a)" style="fill: none; stroke: #cccccc; stroke-width: 0.8; stroke-linecap: round"/>
     </g>
     <g id="text_2">
      <!-- 2 -->
      <g style="fill: #262626" transform="translate(27.240625 234.501295) scale(0.1 -0.1)">
       <defs>
        <path id="DejaVuSans-32" d="M 1228 531 
L 3431 531 
L 3431 0 
L 469 0 
L 469 531 
Q 828 903 1448 1529 
Q 2069 2156 2228 2338 
Q 2531 2678 2651 2914 
Q 2772 3150 2772 3378 
Q 2772 3750 2511 3984 
Q 2250 4219 1831 4219 
Q 1534 4219 1204 4116 
Q 875 4013 500 3803 
L 500 4441 
Q 881 4594 1212 4672 
Q 1544 4750 1819 4750 
Q 2544 4750 2975 4387 
Q 3406 4025 3406 3419 
Q 3406 3131 3298 2873 
Q 3191 2616 2906 2266 
Q 2828 2175 2409 1742 
Q 1991 1309 1228 531 
z
" transform="scale(0.015625)"/>
       </defs>
       <use xlink:href="#DejaVuSans-32"/>
      </g>
     </g>
    </g>
    <g id="ytick_3">
     <g id="line2d_3">
      <path d="M 40.603125 194.084933 
L 273.233125 194.084933 
" clip-path="url(#p3f76abef8a)" style="fill: none; stroke: #cccccc; stroke-width: 0.8; stroke-linecap: round"/>
     </g>
     <g id="text_3">
      <!-- 4 -->
      <g style="fill: #262626" transform="translate(27.240625 197.884152) scale(0.1 -0.1)">
       <defs>
        <path id="DejaVuSans-34" d="M 2419 4116 
L 825 1625 
L 2419 1625 
L 2419 4116 
z
M 2253 4666 
L 3047 4666 
L 3047 1625 
L 3713 1625 
L 3713 1100 
L 3047 1100 
L 3047 0 
L 2419 0 
L 2419 1100 
L 313 1100 
L 313 1709 
L 2253 4666 
z
" transform="scale(0.015625)"/>
       </defs>
       <use xlink:href="#DejaVuSans-34"/>
      </g>
     </g>
    </g>
    <g id="ytick_4">
     <g id="line2d_4">
      <path d="M 40.603125 157.46779 
L 273.233125 157.46779 
" clip-path="url(#p3f76abef8a)" style="fill: none; stroke: #cccccc; stroke-width: 0.8; stroke-linecap: round"/>
     </g>
     <g id="text_4">
      <!-- 6 -->
      <g style="fill: #262626" transform="translate(27.240625 161.267009) scale(0.1 -0.1)">
       <defs>
        <path id="DejaVuSans-36" d="M 2113 2584 
Q 1688 2584 1439 2293 
Q 1191 2003 1191 1497 
Q 1191 994 1439 701 
Q 1688 409 2113 409 
Q 2538 409 2786 701 
Q 3034 994 3034 1497 
Q 3034 2003 2786 2293 
Q 2538 2584 2113 2584 
z
M 3366 4563 
L 3366 3988 
Q 3128 4100 2886 4159 
Q 2644 4219 2406 4219 
Q 1781 4219 1451 3797 
Q 1122 3375 1075 2522 
Q 1259 2794 1537 2939 
Q 1816 3084 2150 3084 
Q 2853 3084 3261 2657 
Q 3669 2231 3669 1497 
Q 3669 778 3244 343 
Q 2819 -91 2113 -91 
Q 1303 -91 875 529 
Q 447 1150 447 2328 
Q 447 3434 972 4092 
Q 1497 4750 2381 4750 
Q 2619 4750 2861 4703 
Q 3103 4656 3366 4563 
z
" transform="scale(0.015625)"/>
       </defs>
       <use xlink:href="#DejaVuSans-36"/>
      </g>
     </g>
    </g>
    <g id="ytick_5">
     <g id="line2d_5">
      <path d="M 40.603125 120.850647 
L 273.233125 120.850647 
" clip-path="url(#p3f76abef8a)" style="fill: none; stroke: #cccccc; stroke-width: 0.8; stroke-linecap: round"/>
     </g>
     <g id="text_5">
      <!-- 8 -->
      <g style="fill: #262626" transform="translate(27.240625 124.649866) scale(0.1 -0.1)">
       <defs>
        <path id="DejaVuSans-38" d="M 2034 2216 
Q 1584 2216 1326 1975 
Q 1069 1734 1069 1313 
Q 1069 891 1326 650 
Q 1584 409 2034 409 
Q 2484 409 2743 651 
Q 3003 894 3003 1313 
Q 3003 1734 2745 1975 
Q 2488 2216 2034 2216 
z
M 1403 2484 
Q 997 2584 770 2862 
Q 544 3141 544 3541 
Q 544 4100 942 4425 
Q 1341 4750 2034 4750 
Q 2731 4750 3128 4425 
Q 3525 4100 3525 3541 
Q 3525 3141 3298 2862 
Q 3072 2584 2669 2484 
Q 3125 2378 3379 2068 
Q 3634 1759 3634 1313 
Q 3634 634 3220 271 
Q 2806 -91 2034 -91 
Q 1263 -91 848 271 
Q 434 634 434 1313 
Q 434 1759 690 2068 
Q 947 2378 1403 2484 
z
M 1172 3481 
Q 1172 3119 1398 2916 
Q 1625 2713 2034 2713 
Q 2441 2713 2670 2916 
Q 2900 3119 2900 3481 
Q 2900 3844 2670 4047 
Q 2441 4250 2034 4250 
Q 1625 4250 1398 4047 
Q 1172 3844 1172 3481 
z
" transform="scale(0.015625)"/>
       </defs>
       <use xlink:href="#DejaVuSans-38"/>
      </g>
     </g>
    </g>
    <g id="ytick_6">
     <g id="line2d_6">
      <path d="M 40.603125 84.233504 
L 273.233125 84.233504 
" clip-path="url(#p3f76abef8a)" style="fill: none; stroke: #cccccc; stroke-width: 0.8; stroke-linecap: round"/>
     </g>
     <g id="text_6">
      <!-- 10 -->
      <g style="fill: #262626" transform="translate(20.878125 88.032723) scale(0.1 -0.1)">
       <defs>
        <path id="DejaVuSans-31" d="M 794 531 
L 1825 531 
L 1825 4091 
L 703 3866 
L 703 4441 
L 1819 4666 
L 2450 4666 
L 2450 531 
L 3481 531 
L 3481 0 
L 794 0 
L 794 531 
z
" transform="scale(0.015625)"/>
       </defs>
       <use xlink:href="#DejaVuSans-31"/>
       <use xlink:href="#DejaVuSans-30" transform="translate(63.623047 0)"/>
      </g>
     </g>
    </g>
    <g id="ytick_7">
     <g id="line2d_7">
      <path d="M 40.603125 47.616362 
L 273.233125 47.616362 
" clip-path="url(#p3f76abef8a)" style="fill: none; stroke: #cccccc; stroke-width: 0.8; stroke-linecap: round"/>
     </g>
     <g id="text_7">
      <!-- 12 -->
      <g style="fill: #262626" transform="translate(20.878125 51.41558) scale(0.1 -0.1)">
       <use xlink:href="#DejaVuSans-31"/>
       <use xlink:href="#DejaVuSans-32" transform="translate(63.623047 0)"/>
      </g>
     </g>
    </g>
    <g id="ytick_8">
     <g id="line2d_8">
      <path d="M 40.603125 10.999219 
L 273.233125 10.999219 
" clip-path="url(#p3f76abef8a)" style="fill: none; stroke: #cccccc; stroke-width: 0.8; stroke-linecap: round"/>
     </g>
     <g id="text_8">
      <!-- 14 -->
      <g style="fill: #262626" transform="translate(20.878125 14.798437) scale(0.1 -0.1)">
       <use xlink:href="#DejaVuSans-31"/>
       <use xlink:href="#DejaVuSans-34" transform="translate(63.623047 0)"/>
      </g>
     </g>
    </g>
    <g id="text_9">
     <!-- Coautorias -->
     <g style="fill: #262626" transform="translate(14.798438 166.075625) rotate(-90) scale(0.1 -0.1)">
      <defs>
       <path id="DejaVuSans-43" d="M 4122 4306 
L 4122 3641 
Q 3803 3938 3442 4084 
Q 3081 4231 2675 4231 
Q 1875 4231 1450 3742 
Q 1025 3253 1025 2328 
Q 1025 1406 1450 917 
Q 1875 428 2675 428 
Q 3081 428 3442 575 
Q 3803 722 4122 1019 
L 4122 359 
Q 3791 134 3420 21 
Q 3050 -91 2638 -91 
Q 1578 -91 968 557 
Q 359 1206 359 2328 
Q 359 3453 968 4101 
Q 1578 4750 2638 4750 
Q 3056 4750 3426 4639 
Q 3797 4528 4122 4306 
z
" transform="scale(0.015625)"/>
       <path id="DejaVuSans-6f" d="M 1959 3097 
Q 1497 3097 1228 2736 
Q 959 2375 959 1747 
Q 959 1119 1226 758 
Q 1494 397 1959 397 
Q 2419 397 2687 759 
Q 2956 1122 2956 1747 
Q 2956 2369 2687 2733 
Q 2419 3097 1959 3097 
z
M 1959 3584 
Q 2709 3584 3137 3096 
Q 3566 2609 3566 1747 
Q 3566 888 3137 398 
Q 2709 -91 1959 -91 
Q 1206 -91 779 398 
Q 353 888 353 1747 
Q 353 2609 779 3096 
Q 1206 3584 1959 3584 
z
" transform="scale(0.015625)"/>
       <path id="DejaVuSans-61" d="M 2194 1759 
Q 1497 1759 1228 1600 
Q 959 1441 959 1056 
Q 959 750 1161 570 
Q 1363 391 1709 391 
Q 2188 391 2477 730 
Q 2766 1069 2766 1631 
L 2766 1759 
L 2194 1759 
z
M 3341 1997 
L 3341 0 
L 2766 0 
L 2766 531 
Q 2569 213 2275 61 
Q 1981 -91 1556 -91 
Q 1019 -91 701 211 
Q 384 513 384 1019 
Q 384 1609 779 1909 
Q 1175 2209 1959 2209 
L 2766 2209 
L 2766 2266 
Q 2766 2663 2505 2880 
Q 2244 3097 1772 3097 
Q 1472 3097 1187 3025 
Q 903 2953 641 2809 
L 641 3341 
Q 956 3463 1253 3523 
Q 1550 3584 1831 3584 
Q 2591 3584 2966 3190 
Q 3341 2797 3341 1997 
z
" transform="scale(0.015625)"/>
       <path id="DejaVuSans-75" d="M 544 1381 
L 544 3500 
L 1119 3500 
L 1119 1403 
Q 1119 906 1312 657 
Q 1506 409 1894 409 
Q 2359 409 2629 706 
Q 2900 1003 2900 1516 
L 2900 3500 
L 3475 3500 
L 3475 0 
L 2900 0 
L 2900 538 
Q 2691 219 2414 64 
Q 2138 -91 1772 -91 
Q 1169 -91 856 284 
Q 544 659 544 1381 
z
M 1991 3584 
L 1991 3584 
z
" transform="scale(0.015625)"/>
       <path id="DejaVuSans-74" d="M 1172 4494 
L 1172 3500 
L 2356 3500 
L 2356 3053 
L 1172 3053 
L 1172 1153 
Q 1172 725 1289 603 
Q 1406 481 1766 481 
L 2356 481 
L 2356 0 
L 1766 0 
Q 1100 0 847 248 
Q 594 497 594 1153 
L 594 3053 
L 172 3053 
L 172 3500 
L 594 3500 
L 594 4494 
L 1172 4494 
z
" transform="scale(0.015625)"/>
       <path id="DejaVuSans-72" d="M 2631 2963 
Q 2534 3019 2420 3045 
Q 2306 3072 2169 3072 
Q 1681 3072 1420 2755 
Q 1159 2438 1159 1844 
L 1159 0 
L 581 0 
L 581 3500 
L 1159 3500 
L 1159 2956 
Q 1341 3275 1631 3429 
Q 1922 3584 2338 3584 
Q 2397 3584 2469 3576 
Q 2541 3569 2628 3553 
L 2631 2963 
z
" transform="scale(0.015625)"/>
       <path id="DejaVuSans-69" d="M 603 3500 
L 1178 3500 
L 1178 0 
L 603 0 
L 603 3500 
z
M 603 4863 
L 1178 4863 
L 1178 4134 
L 603 4134 
L 603 4863 
z
" transform="scale(0.015625)"/>
       <path id="DejaVuSans-73" d="M 2834 3397 
L 2834 2853 
Q 2591 2978 2328 3040 
Q 2066 3103 1784 3103 
Q 1356 3103 1142 2972 
Q 928 2841 928 2578 
Q 928 2378 1081 2264 
Q 1234 2150 1697 2047 
L 1894 2003 
Q 2506 1872 2764 1633 
Q 3022 1394 3022 966 
Q 3022 478 2636 193 
Q 2250 -91 1575 -91 
Q 1294 -91 989 -36 
Q 684 19 347 128 
L 347 722 
Q 666 556 975 473 
Q 1284 391 1588 391 
Q 1994 391 2212 530 
Q 2431 669 2431 922 
Q 2431 1156 2273 1281 
Q 2116 1406 1581 1522 
L 1381 1569 
Q 847 1681 609 1914 
Q 372 2147 372 2553 
Q 372 3047 722 3315 
Q 1072 3584 1716 3584 
Q 2034 3584 2315 3537 
Q 2597 3491 2834 3397 
z
" transform="scale(0.015625)"/>
      </defs>
      <use xlink:href="#DejaVuSans-43"/>
      <use xlink:href="#DejaVuSans-6f" transform="translate(69.824219 0)"/>
      <use xlink:href="#DejaVuSans-61" transform="translate(131.005859 0)"/>
      <use xlink:href="#DejaVuSans-75" transform="translate(192.285156 0)"/>
      <use xlink:href="#DejaVuSans-74" transform="translate(255.664062 0)"/>
      <use xlink:href="#DejaVuSans-6f" transform="translate(294.873047 0)"/>
      <use xlink:href="#DejaVuSans-72" transform="translate(356.054688 0)"/>
      <use xlink:href="#DejaVuSans-69" transform="translate(397.167969 0)"/>
      <use xlink:href="#DejaVuSans-61" transform="translate(424.951172 0)"/>
      <use xlink:href="#DejaVuSans-73" transform="translate(486.230469 0)"/>
     </g>
    </g>
   </g>
   <g id="FillBetweenPolyCollection_1">
    <defs>
     <path id="m999eae4b80" d="M 169.257939 -15.526615 
L 144.578311 -15.526615 
L 134.668059 -18.066257 
L 120.696908 -20.605899 
L 103.66258 -23.145542 
L 86.144333 -25.685184 
L 71.768531 -28.224826 
L 63.866125 -30.764468 
L 63.940709 -33.304111 
L 70.883775 -35.843753 
L 81.518274 -38.383395 
L 92.200908 -40.923037 
L 100.508299 -43.46268 
L 106.019463 -46.002322 
L 109.868239 -48.541964 
L 113.54706 -51.081606 
L 117.827732 -53.621249 
L 122.432801 -56.160891 
L 126.495068 -58.700533 
L 129.331921 -61.240175 
L 130.950286 -63.779818 
L 131.986589 -66.31946 
L 133.215705 -68.859102 
L 135.029842 -71.398744 
L 137.245943 -73.938387 
L 139.325588 -76.478029 
L 140.801551 -79.017671 
L 141.5953 -81.557313 
L 142.026813 -84.096956 
L 142.551759 -86.636598 
L 143.439622 -89.17624 
L 144.618509 -91.715882 
L 145.77143 -94.255525 
L 146.588255 -96.795167 
L 146.983451 -99.334809 
L 147.13509 -101.874451 
L 147.338312 -104.414094 
L 147.793224 -106.953736 
L 148.479188 -109.493378 
L 149.192918 -112.03302 
L 149.708107 -114.572663 
L 149.935187 -117.112305 
L 149.971302 -119.651947 
L 150.016009 -122.191589 
L 150.222732 -124.731232 
L 150.594616 -127.270874 
L 150.994394 -129.810516 
L 151.25366 -132.350158 
L 151.298628 -134.889801 
L 151.202968 -137.429443 
L 151.134185 -139.969085 
L 151.235969 -142.508727 
L 151.531447 -145.04837 
L 151.913554 -147.588012 
L 152.22484 -150.127654 
L 152.366853 -152.667296 
L 152.362198 -155.206939 
L 152.329572 -157.746581 
L 152.394479 -160.286223 
L 152.601288 -162.825865 
L 152.887395 -165.365508 
L 153.133596 -167.90515 
L 153.251069 -170.444792 
L 153.242391 -172.984434 
L 153.195691 -175.524077 
L 153.21971 -178.063719 
L 153.368017 -180.603361 
L 153.605392 -183.143003 
L 153.837134 -185.682646 
L 153.977239 -188.222288 
L 154.005939 -190.76193 
L 153.97751 -193.301572 
L 153.976118 -195.841215 
L 154.053663 -198.380857 
L 154.194265 -200.920499 
L 154.329111 -203.460141 
L 154.388882 -205.999784 
L 154.355038 -208.539426 
L 154.273423 -211.079068 
L 154.221426 -213.61871 
L 154.253026 -216.158353 
L 154.361239 -218.697995 
L 154.484404 -221.237637 
L 154.55125 -223.777279 
L 154.532414 -226.316922 
L 154.462184 -228.856564 
L 154.415879 -231.396206 
L 154.459494 -233.935848 
L 154.606926 -236.475491 
L 154.81346 -239.015133 
L 155.007984 -241.554775 
L 155.140079 -244.094417 
L 155.210012 -246.63406 
L 155.263986 -249.173702 
L 155.361469 -251.713344 
L 155.538466 -254.252986 
L 155.789494 -256.792629 
L 156.075417 -259.332271 
L 156.347104 -261.871913 
L 156.567985 -264.411555 
L 156.724105 -266.951198 
L 157.112145 -266.951198 
L 157.112145 -266.951198 
L 157.268265 -264.411555 
L 157.489146 -261.871913 
L 157.760833 -259.332271 
L 158.046756 -256.792629 
L 158.297784 -254.252986 
L 158.474781 -251.713344 
L 158.572264 -249.173702 
L 158.626238 -246.63406 
L 158.696171 -244.094417 
L 158.828266 -241.554775 
L 159.02279 -239.015133 
L 159.229324 -236.475491 
L 159.376756 -233.935848 
L 159.420371 -231.396206 
L 159.374066 -228.856564 
L 159.303836 -226.316922 
L 159.285 -223.777279 
L 159.351846 -221.237637 
L 159.475011 -218.697995 
L 159.583224 -216.158353 
L 159.614824 -213.61871 
L 159.562827 -211.079068 
L 159.481212 -208.539426 
L 159.447368 -205.999784 
L 159.507139 -203.460141 
L 159.641985 -200.920499 
L 159.782587 -198.380857 
L 159.860132 -195.841215 
L 159.85874 -193.301572 
L 159.830311 -190.76193 
L 159.859011 -188.222288 
L 159.999116 -185.682646 
L 160.230858 -183.143003 
L 160.468233 -180.603361 
L 160.61654 -178.063719 
L 160.640559 -175.524077 
L 160.593859 -172.984434 
L 160.585181 -170.444792 
L 160.702654 -167.90515 
L 160.948855 -165.365508 
L 161.234962 -162.825865 
L 161.441771 -160.286223 
L 161.506678 -157.746581 
L 161.474052 -155.206939 
L 161.469397 -152.667296 
L 161.61141 -150.127654 
L 161.922696 -147.588012 
L 162.304803 -145.04837 
L 162.600281 -142.508727 
L 162.702065 -139.969085 
L 162.633282 -137.429443 
L 162.537622 -134.889801 
L 162.58259 -132.350158 
L 162.841856 -129.810516 
L 163.241634 -127.270874 
L 163.613518 -124.731232 
L 163.820241 -122.191589 
L 163.864948 -119.651947 
L 163.901063 -117.112305 
L 164.128143 -114.572663 
L 164.643332 -112.03302 
L 165.357062 -109.493378 
L 166.043026 -106.953736 
L 166.497938 -104.414094 
L 166.70116 -101.874451 
L 166.852799 -99.334809 
L 167.247995 -96.795167 
L 168.06482 -94.255525 
L 169.217741 -91.715882 
L 170.396628 -89.17624 
L 171.284491 -86.636598 
L 171.809437 -84.096956 
L 172.24095 -81.557313 
L 173.034699 -79.017671 
L 174.510662 -76.478029 
L 176.590307 -73.938387 
L 178.806408 -71.398744 
L 180.620545 -68.859102 
L 181.849661 -66.31946 
L 182.885964 -63.779818 
L 184.504329 -61.240175 
L 187.341182 -58.700533 
L 191.403449 -56.160891 
L 196.008518 -53.621249 
L 200.28919 -51.081606 
L 203.968011 -48.541964 
L 207.816787 -46.002322 
L 213.327951 -43.46268 
L 221.635342 -40.923037 
L 232.317976 -38.383395 
L 242.952475 -35.843753 
L 249.895541 -33.304111 
L 249.970125 -30.764468 
L 242.067719 -28.224826 
L 227.691917 -25.685184 
L 210.17367 -23.145542 
L 193.139342 -20.605899 
L 179.168191 -18.066257 
L 169.257939 -15.526615 
z
" style="stroke: #737373; stroke-width: 1.25"/>
    </defs>
    <g clip-path="url(#p3f76abef8a)">
     <use xlink:href="#m999eae4b80" x="0" y="280.398125" style="fill: #9ce29c; stroke: #737373; stroke-width: 1.25"/>
    </g>
   </g>
   <g id="line2d_9">
    <path d="M 63.884421 249.010647 
L 249.951829 249.010647 
" clip-path="url(#p3f76abef8a)" style="fill: none; stroke-dasharray: 1.5625,0.9375; stroke-dashoffset: 0; stroke: #737373; stroke-width: 1.25"/>
   </g>
   <g id="line2d_10">
    <path d="M 111.539999 230.702076 
L 202.296251 230.702076 
" clip-path="url(#p3f76abef8a)" style="fill: none; stroke-dasharray: 3.125,1.25; stroke-dashoffset: 0; stroke: #737373; stroke-width: 1.25"/>
   </g>
   <g id="line2d_11">
    <path d="M 132.80216 212.393504 
L 181.03409 212.393504 
" clip-path="url(#p3f76abef8a)" style="fill: none; stroke-dasharray: 1.5625,0.9375; stroke-dashoffset: 0; stroke: #737373; stroke-width: 1.25"/>
   </g>
   <g id="patch_3">
    <path d="M 40.603125 267.319219 
L 40.603125 10.999219 
" style="fill: none; stroke: #cccccc; stroke-width: 0.8; stroke-linejoin: miter; stroke-linecap: square"/>
   </g>
   <g id="patch_4">
    <path d="M 273.233125 267.319219 
L 273.233125 10.999219 
" style="fill: none; stroke: #cccccc; stroke-width: 0.8; stroke-linejoin: miter; stroke-linecap: square"/>
   </g>
   <g id="patch_5">
    <path d="M 40.603125 267.319219 
L 273.233125 267.319219 
" style="fill: none; stroke: #cccccc; stroke-width: 0.8; stroke-linejoin: miter; stroke-linecap: square"/>
   </g>
   <g id="patch_6">
    <path d="M 40.603125 10.999219 
L 273.233125 10.999219 
" style="fill: none; stroke: #cccccc; stroke-width: 0.8; stroke-linejoin: miter; stroke-linecap: square"/>
   </g>
  </g>
 </g>
 <defs>
  <clipPath id="p3f76abef8a">
   <rect x="40.603125" y="10.999219" width="232.63" height="256.32"/>
  </clipPath>
 </defs>
</svg>
